<svg xmlns="http://www.w3.org/2000/svg" width="10.716" height="12.247" viewBox="0 0 10.716 12.247">
  <g id="Group_2" data-name="Group 2" transform="translate(-30.328 -23.899)">
    <path id="Icon_awesome-shopping-bag" data-name="Icon awesome-shopping-bag" d="M8.42,3.827V3.062a3.062,3.062,0,0,0-6.123,0v.765H0v6.506a1.914,1.914,0,0,0,1.914,1.914H8.8a1.914,1.914,0,0,0,1.914-1.914V3.827ZM3.827,3.062a1.531,1.531,0,0,1,3.062,0v.765H3.827Zm3.827,2.87a.574.574,0,1,1,.574-.574A.574.574,0,0,1,7.654,5.932Zm-4.592,0a.574.574,0,1,1,.574-.574A.574.574,0,0,1,3.062,5.932Z" transform="translate(30.328 23.899)" fill="#fff"/>
  </g>
</svg>
